<svg xmlns="http://www.w3.org/2000/svg" width="56" height="32"><path fill="#afb1b8" d="M26.289 3.487h-.072c-.11-.007-.22-.009-.331-.012h-.239c-.208 0-.421.005-.632.016l-.024-.001-.025.001h.001a14.803 14.803 0 0 0-5.606 1.446l.089-.039-.227.11v11.614l.531-.18c.466-.16.962-.304 1.476-.438a17.553 17.553 0 0 1 4.234-.564h.012v1.526c-.201.001-.396.007-.59.017l.031-.001h-.044c-1.192.067-2.31.246-3.385.528l.118-.026a16.589 16.589 0 0 0-3.978 1.56l.085-.043V4.104a15.262 15.262 0 0 1 3.976-1.637l.108-.023a15.239 15.239 0 0 1 3.845-.496h.227c.268.007.53.019.775.037.707.051 1.362.159 1.994.323l-.077-.017v1.502a11.31 11.31 0 0 0-1.859-.281l-.037-.002c-.13-.011-.259-.022-.38-.022zm2.644 1.536c.333.025.678.037 1.027.037a16.525 16.525 0 0 0 4.161-.544l-.115.026a16.584 16.584 0 0 0 3.977-1.562l-.086.043v14.631a15.296 15.296 0 0 1-3.976 1.637l-.108.024a15.337 15.337 0 0 1-3.845.495h-.098c-1.003 0-1.977-.126-2.906-.362l.081.018V4.74a12.161 12.161 0 0 0 1.845.281l.044.003zm7.446.113-.531.178c-.321.118-.813.269-1.312.404l-.164.038c-1.322.354-2.84.56-4.406.566h-.003c-.346 0-.665-.009-.973-.029l-.423-.028v11.949l.364.031c.337.03.685.045 1.035.045a14.091 14.091 0 0 0 3.571-.472l-.098.022a14.415 14.415 0 0 0 2.801-1.014l-.087.038.227-.109V5.136zM18.747 24.092a.779.779 0 0 0-.563-.239l-.029.001h.001-.012a.885.885 0 0 0-.335.066l.006-.002a.774.774 0 0 0-.435.436l-.002.005a.865.865 0 0 0-.061.329v1.99l-.001.032c0 .136.029.265.081.382l-.002-.006a.707.707 0 0 0 .472.409c.097.027.197.041.297.041a.842.842 0 0 0 .825-.837v-.223h-.521v.189a.448.448 0 0 1-.032.168l.001-.003a.324.324 0 0 1-.075.112.363.363 0 0 1-.217.076.266.266 0 0 1-.243-.106v-.001a.463.463 0 0 1-.07-.247v-.021.001-1.856a.634.634 0 0 1 .064-.297.266.266 0 0 1 .256-.12h-.001.01c.091 0 .172.044.222.112l.001.001c.054.07.086.159.086.256v.012-.001.172h.515V24.712a.926.926 0 0 0-.066-.346l.002.006a.838.838 0 0 0-.174-.281zm3.091-.023a.922.922 0 0 0-.591-.219.919.919 0 0 0-.311.056.817.817 0 0 0-.474.437l-.002.005a.927.927 0 0 0-.076.386v1.909a.922.922 0 0 0 .076.391.775.775 0 0 0 .201.267c.08.073.173.131.275.168a.896.896 0 0 0 .903-.169l-.001.001a.821.821 0 0 0 .196-.267.937.937 0 0 0 .076-.391V24.716a.915.915 0 0 0-.079-.374l.002.006a.877.877 0 0 0-.196-.279zm-.243 2.574a.345.345 0 0 1-.103.276.381.381 0 0 1-.491-.001h.001a.338.338 0 0 1-.105-.246l.001-.031v.001-1.91l-.001-.029c0-.097.04-.184.105-.246a.381.381 0 0 1 .491.001h-.001a.34.34 0 0 1 .105.246l-.001.031v-.001 1.909zm4.302.852v-3.614h-.5l-.658 1.913h-.009l-.663-1.913h-.495v3.614h.516v-2.199h.009l.505 1.554h.258l.509-1.554h.009v2.198h.516zm2.933-3.36a.723.723 0 0 0-.292-.198 1.13 1.13 0 0 0-.353-.056h-.022.001-.767v3.613h.515v-1.411h.265a.937.937 0 0 0 .465-.099.76.76 0 0 0 .281-.273l.002-.003a.865.865 0 0 0 .118-.315c.02-.136.029-.273.028-.411a2.083 2.083 0 0 0-.05-.516.772.772 0 0 0-.19-.332zm-.265 1.101a.45.45 0 0 1-.049.191l.001-.003a.3.3 0 0 1-.131.126l-.002.001a.525.525 0 0 1-.216.046l-.028-.001h.001-.235v-1.229h.265l.025-.001c.075 0 .147.017.211.047l-.003-.001a.295.295 0 0 1 .12.132l.001.002a.516.516 0 0 1 .045.201v.24c0 .084.005.171 0 .248h-.005zm2.705-1.355h-.422l-.796 3.614h.515l.151-.776h.702l.151.776h.515l-.816-3.614zm-.476 2.345.253-1.31h.009l.252 1.31h-.515zm3.803-.168h-.009l-.777-2.177h-.495v3.614h.515v-2.173h.011l.787 2.173h.485v-3.613h-.515v2.177zm3.146-2.177-.414 1.437h-.011l-.414-1.437h-.545l.707 2.087v1.528h.515v-1.528l.707-2.086h-.546zm-20.432 4.635h.248v.696h.168v-.696h.247v-.143h-.663v.143zm2.087-.143-.325.839h.179l.069-.191h.335l.071.191h.184l-.334-.839h-.179zm-.026.507.114-.311.114.311h-.228zm2.088.022h.194v.108a.322.322 0 0 1-.199.071h-.012a.212.212 0 0 1-.166-.08.349.349 0 0 1-.062-.2l.001-.02v.001c0-.187.081-.28.241-.28l.018-.001c.083 0 .152.057.172.133v.001l.166-.032c-.036-.164-.154-.247-.356-.247h-.012a.423.423 0 0 0-.282.108.408.408 0 0 0-.121.324v-.001.02a.46.46 0 0 0 .108.296l-.001-.001a.408.408 0 0 0 .292.124l.027-.001h-.001.013a.505.505 0 0 0 .343-.134v-.331h-.364v.142zm2.106-.529h-.17v.839h.588v-.143h-.418v-.696zm1.781 0h-.17v.839h.17v-.839zm1.741.56-.344-.56h-.164v.839h.157v-.549l.337.548h.169v-.839h-.156v.561zm1.574-.091h.418V28.7h-.418v-.184h.45v-.143h-.62v.839h.637v-.143h-.467v-.227zm3.816-.139h-.331v-.331h-.168v.839h.168v-.367h.331v.367h.169v-.839h-.169v.331zm1.584.139h.42V28.7h-.42v-.184h.451v-.143h-.619v.839h.636v-.143h-.467v-.227zm2.147 0c.146-.022.22-.1.22-.233l.001-.024a.203.203 0 0 0-.083-.163h-.001a.465.465 0 0 0-.213-.05l-.034.001h.002-.356v.839h.169v-.351h.047c.033 0 .065.007.093.02l-.001-.001a.184.184 0 0 1 .06.061l.183.267h.201l-.102-.164a.59.59 0 0 0-.184-.2l-.002-.001zm-.17-.115h-.124v-.211h.133l.035-.001a.46.46 0 0 1 .139.022l-.003-.001a.107.107 0 0 1 .023.135v-.001a.114.114 0 0 1-.032.037.478.478 0 0 1-.14.021l-.033-.001h.001zm1.789.115h.418V28.7h-.418v-.184h.451v-.143h-.621v.839h.637v-.143h-.467v-.227z"/></svg>