<svg xmlns="http://www.w3.org/2000/svg" width="56" height="32"><path fill="#afb1b8" d="m19.934 4.046 3.676 3.48-6.824-.004v16.885h17.836v-6.456l3.672 3.476V4.045H19.933zm14.527 13.497L24.037 7.675h10.424v9.868zm-3.236 4.395H19.609V10.581h.821v10.587h10.795v.769zm-8.872 4.717-.429.884-.429-.884h-.36l.626 1.178v.687h.325v-.687l.625-1.178h-.358zm.539 1.865.151-.434h.722l.152.434h.338l-.706-1.865h-.291l-.704 1.865h.337zm.512-1.468.27.773h-.54l.27-.773zm1.709.728a.422.422 0 0 0-.07.234v.003c0 .157.055.285.165.383s.259.146.443.146c.185 0 .344-.05.477-.15l.105.124h.361l-.274-.324c.108-.147.161-.335.161-.564h-.27a.74.74 0 0 1-.078.341l-.36-.425.127-.092a.702.702 0 0 0 .192-.192l.002-.003a.409.409 0 0 0 .059-.212v-.01a.381.381 0 0 0-.13-.288.467.467 0 0 0-.315-.121h-.019.001c-.15 0-.27.043-.358.129a.452.452 0 0 0-.133.346c0 .06.014.122.042.186.029.064.08.142.152.233a1.089 1.089 0 0 0-.277.257zm.841.413a.47.47 0 0 1-.294.105h-.015a.309.309 0 0 1-.208-.081.277.277 0 0 1-.084-.199v-.011.001c0-.1.051-.189.154-.267l.04-.028.407.481zm-.334-.827c-.088-.108-.132-.198-.132-.27 0-.062.018-.114.054-.155a.182.182 0 0 1 .137-.062h.016c.051 0 .098.02.133.053a.163.163 0 0 1 .055.124v.007a.232.232 0 0 1-.079.174l-.04.031-.142.098zm3.035 1.013a.678.678 0 0 0 .22-.466h-.323c-.017.133-.058.228-.122.285s-.16.086-.287.086c-.139 0-.245-.053-.317-.159s-.108-.26-.108-.461v-.165c.002-.199.04-.349.115-.452a.38.38 0 0 1 .325-.155c.121 0 .213.03.275.089s.102.156.118.29h.323c-.021-.205-.093-.362-.219-.474s-.291-.168-.497-.168a.754.754 0 0 0-.404.109.714.714 0 0 0-.266.305l-.002.004a1.08 1.08 0 0 0-.094.443v.023-.001.174c.003.172.035.322.096.452s.149.23.261.301c.114.07.245.105.393.105.212 0 .383-.056.511-.167zm1.904-.261c.063-.138.095-.299.095-.482v-.123c0-.166-.036-.323-.1-.465l.003.007a.712.712 0 0 0-.27-.313l-.003-.002c-.117-.073-.252-.11-.404-.11s-.286.037-.404.111a.722.722 0 0 0-.273.319 1.121 1.121 0 0 0-.096.459v.024-.001.105c.001.178.033.336.097.472a.74.74 0 0 0 .274.317c.119.073.253.11.404.11a.75.75 0 0 0 .405-.11.725.725 0 0 0 .271-.318zm-.346-1.054c.079.11.117.269.117.475v.097c0 .21-.039.37-.116.479a.378.378 0 0 1-.331.164h-.013a.386.386 0 0 1-.318-.167l-.001-.001c-.08-.112-.119-.27-.119-.475v-.108c.002-.2.042-.356.12-.465a.382.382 0 0 1 .315-.166h.014-.001c.144 0 .254.055.332.165z"/></svg>