<svg width="106" height="61" fill="none" xmlns="http://www.w3.org/2000/svg"><path fill-rule="evenodd" clip-rule="evenodd" d="M50.114 6.648h-.137c-.21-.013-.42-.018-.63-.023h-.455c-.397 0-.802.01-1.204.03a.628.628 0 0 0-.091 0A28.275 28.275 0 0 0 37.08 9.338l-.432.209v22.14l1.012-.343c.888-.305 1.834-.58 2.813-.834a34.334 34.334 0 0 1 8.095-1.075v2.909a24.28 24.28 0 0 0-1.065.03h-.084a32.36 32.36 0 0 0-6.228.956 31.635 31.635 0 0 0-7.42 2.892V7.825a29.727 29.727 0 0 1 7.785-3.166 29.793 29.793 0 0 1 7.336-.946h.427c.511.013 1.01.036 1.478.071a21.09 21.09 0 0 1 3.655.583V7.23a22.624 22.624 0 0 0-3.614-.54c-.247-.021-.494-.042-.724-.042Zm5.039 2.927c.635.048 1.293.07 1.958.07a31.467 31.467 0 0 0 7.713-.988 31.777 31.777 0 0 0 7.417-2.894v27.89a29.815 29.815 0 0 1-7.786 3.166 29.943 29.943 0 0 1-7.337.944 22.405 22.405 0 0 1-5.565-.656V9.035c.43.1.873.191 1.323.267a24.85 24.85 0 0 0 2.277.273Zm14.194.216-1.012.34a44.54 44.54 0 0 1-2.813.842 34.263 34.263 0 0 1-8.406 1.078c-.66 0-1.267-.018-1.854-.056l-.807-.053V34.719l.693.06c.642.057 1.305.085 1.973.085a26.888 26.888 0 0 0 6.62-.857 27.764 27.764 0 0 0 5.174-1.86l.432-.208V9.791Z" fill="#AFB1B8"/><path d="M35.737 45.925a1.492 1.492 0 0 0-1.126-.455 1.676 1.676 0 0 0-.65.122 1.464 1.464 0 0 0-.832.842c-.08.2-.119.413-.116.628v3.794a1.79 1.79 0 0 0 .149.778c.09.195.219.368.38.509.151.128.329.22.52.27.185.051.376.078.567.078.211.002.42-.043.612-.132a1.601 1.601 0 0 0 .96-1.465v-.424h-.993v.338a.88.88 0 0 1-.058.338.607.607 0 0 1-.144.214.697.697 0 0 1-.415.145.504.504 0 0 1-.465-.204.898.898 0 0 1-.132-.508v-3.538c-.006-.196.036-.39.122-.567a.507.507 0 0 1 .485-.229.527.527 0 0 1 .443.214.806.806 0 0 1 .164.509v.328h.982v-.387a1.79 1.79 0 0 0-.121-.663 1.563 1.563 0 0 0-.332-.535ZM41.629 45.882a1.765 1.765 0 0 0-1.128-.417c-.202.001-.403.037-.592.107a1.56 1.56 0 0 0-.908.842c-.1.231-.15.482-.145.735v3.639c-.007.256.043.51.145.745.09.195.22.369.384.508.152.14.33.25.524.32a1.711 1.711 0 0 0 1.72-.32c.158-.142.285-.315.374-.508.102-.235.151-.49.145-.745v-3.64a1.77 1.77 0 0 0-.145-.734 1.641 1.641 0 0 0-.374-.532Zm-.463 4.906a.656.656 0 0 1-.197.526.726.726 0 0 1-.934 0 .65.65 0 0 1-.197-.526v-3.64a.653.653 0 0 1 .197-.526.726.726 0 0 1 .934 0 .653.653 0 0 1 .197.527v3.639ZM49.367 52.413v-6.89h-.953L47.16 49.17h-.017l-1.263-3.646h-.943v6.889h.984v-4.191h.018l.963 2.962h.491l.971-2.962h.018v4.19h.984ZM54.958 46.007c-.151-.17-.343-.3-.556-.377a2.184 2.184 0 0 0-.714-.106h-1.462v6.888h.982v-2.69h.505c.307.014.611-.05.886-.188a1.43 1.43 0 0 0 .539-.527c.113-.183.19-.387.225-.6.038-.259.056-.52.053-.783.01-.33-.023-.661-.096-.984a1.467 1.467 0 0 0-.362-.633Zm-.506 2.1a.866.866 0 0 1-.091.359.553.553 0 0 1-.253.241 1.007 1.007 0 0 1-.463.087h-.448v-2.342h.506a.941.941 0 0 1 .443.086.555.555 0 0 1 .23.255c.054.12.083.251.086.383v.458c0 .16.01.326 0 .473h-.01ZM59.608 45.524h-.805l-1.518 6.889h.982l.288-1.48h1.339l.288 1.48h.981l-1.555-6.89Zm-.906 4.47.483-2.497h.018l.48 2.497h-.981ZM65.95 49.674h-.018l-1.482-4.15h-.944v6.889h.981V48.27h.02l1.5 4.142h.924v-6.888h-.981v4.15ZM71.948 45.524l-.79 2.739h-.02l-.79-2.74H69.31l1.348 3.978v2.912h.982V49.5l1.348-3.977h-1.04ZM33 54.358h.473v1.327h.321v-1.327h.47v-.272H33v.272ZM36.977 54.086l-.62 1.6h.341l.132-.365h.638l.136.364h.35l-.636-1.6h-.341Zm-.05.966.217-.593.217.593h-.435ZM40.908 55.095h.37v.206a.612.612 0 0 1-.38.135.402.402 0 0 1-.34-.153.669.669 0 0 1-.118-.417c0-.356.154-.534.46-.534a.338.338 0 0 1 .362.255l.316-.061c-.068-.313-.293-.47-.678-.47a.804.804 0 0 0-.559.205.78.78 0 0 0-.23.616.872.872 0 0 0 .205.6.776.776 0 0 0 .607.234.961.961 0 0 0 .678-.255v-.63h-.693v.27ZM44.923 54.086h-.324v1.6h1.12v-.273h-.796v-1.327ZM48.318 54.086h-.324v1.6h.324v-1.6ZM51.636 55.154l-.655-1.068h-.313v1.6h.3V54.64l.643 1.045h.322v-1.6h-.297v1.069ZM54.637 54.98h.797v-.271h-.797v-.351h.857v-.272h-1.181v1.6h1.214v-.273h-.89v-.432ZM61.912 54.716h-.63v-.63h-.32v1.6h.32v-.7h.63v.7h.322v-1.6h-.322v.63ZM64.93 54.98h.8v-.271h-.8v-.351h.86v-.272H64.61v1.6h1.212v-.273h-.89v-.432ZM69.023 54.98c.279-.042.42-.19.42-.444a.383.383 0 0 0-.157-.356.905.905 0 0 0-.468-.094h-.678v1.6h.322v-.67h.063a.431.431 0 0 1 .2.036c.047.029.086.07.114.117l.349.509h.384l-.195-.313a1.115 1.115 0 0 0-.354-.384Zm-.324-.22h-.237v-.402h.253a.84.84 0 0 1 .326.038.208.208 0 0 1 .046.256.208.208 0 0 1-.061.07.913.913 0 0 1-.327.038ZM72.11 54.98h.796v-.271h-.796v-.351h.86v-.272h-1.184v1.6H73v-.273h-.89v-.432Z" fill="#AFB1B8"/></svg>